<mxfile host="app.diagrams.net" agent="Mozilla/5.0 (X11; Linux x86_64) AppleWebKit/537.36 (KHTML, like Gecko) Chrome/135.0.0.0 Safari/537.36" version="26.2.5">
  <diagram name="Page-1" id="FbGKx6eWu9knlTq-HqXQ">
    <mxGraphModel dx="1044" dy="2374" grid="1" gridSize="10" guides="1" tooltips="1" connect="1" arrows="1" fold="1" page="1" pageScale="1" pageWidth="1100" pageHeight="850" background="#ffffff" math="0" shadow="0">
      <root>
        <mxCell id="0" />
        <mxCell id="1" parent="0" />
        <mxCell id="Nl0Tw7YQ_8z09jcdJoS5-1" value="Add / Update/ Delete&lt;div&gt;Category&lt;/div&gt;" style="ellipse;whiteSpace=wrap;html=1;labelBackgroundColor=none;" vertex="1" parent="1">
          <mxGeometry x="477" y="-1348" width="150" height="80" as="geometry" />
        </mxCell>
        <mxCell id="Nl0Tw7YQ_8z09jcdJoS5-3" value="Add / Update / Delete&lt;div&gt;Subcategory&lt;/div&gt;" style="ellipse;whiteSpace=wrap;html=1;labelBackgroundColor=none;" vertex="1" parent="1">
          <mxGeometry x="477" y="-1258" width="150" height="80" as="geometry" />
        </mxCell>
        <mxCell id="Nl0Tw7YQ_8z09jcdJoS5-4" value="Add / Update / Delete&lt;div&gt;Product&lt;/div&gt;" style="ellipse;whiteSpace=wrap;html=1;labelBackgroundColor=none;" vertex="1" parent="1">
          <mxGeometry x="477" y="-1168" width="150" height="80" as="geometry" />
        </mxCell>
        <mxCell id="Nl0Tw7YQ_8z09jcdJoS5-5" value="View Products" style="ellipse;whiteSpace=wrap;html=1;labelBackgroundColor=none;" vertex="1" parent="1">
          <mxGeometry x="492" y="-988" width="120" height="80" as="geometry" />
        </mxCell>
        <mxCell id="Nl0Tw7YQ_8z09jcdJoS5-6" value="Register" style="ellipse;whiteSpace=wrap;html=1;labelBackgroundColor=none;" vertex="1" parent="1">
          <mxGeometry x="492" y="-1675" width="120" height="80" as="geometry" />
        </mxCell>
        <mxCell id="Nl0Tw7YQ_8z09jcdJoS5-7" value="Search products" style="ellipse;whiteSpace=wrap;html=1;labelBackgroundColor=none;" vertex="1" parent="1">
          <mxGeometry x="492" y="-1078" width="120" height="80" as="geometry" />
        </mxCell>
        <mxCell id="Nl0Tw7YQ_8z09jcdJoS5-8" value="View Users" style="ellipse;whiteSpace=wrap;html=1;labelBackgroundColor=none;" vertex="1" parent="1">
          <mxGeometry x="492" y="-898" width="120" height="80" as="geometry" />
        </mxCell>
        <mxCell id="Nl0Tw7YQ_8z09jcdJoS5-9" value="Logout" style="ellipse;whiteSpace=wrap;html=1;labelBackgroundColor=none;" vertex="1" parent="1">
          <mxGeometry x="492" y="-808" width="120" height="80" as="geometry" />
        </mxCell>
        <mxCell id="Nl0Tw7YQ_8z09jcdJoS5-10" value="Login" style="ellipse;whiteSpace=wrap;html=1;labelBackgroundColor=none;" vertex="1" parent="1">
          <mxGeometry x="492" y="-1585" width="120" height="80" as="geometry" />
        </mxCell>
        <mxCell id="Nl0Tw7YQ_8z09jcdJoS5-12" value="User" style="shape=umlActor;verticalLabelPosition=bottom;verticalAlign=top;html=1;outlineConnect=0;labelBackgroundColor=none;" vertex="1" parent="1">
          <mxGeometry x="305" y="-1325" width="30" height="60" as="geometry" />
        </mxCell>
        <mxCell id="Nl0Tw7YQ_8z09jcdJoS5-13" value="Admin" style="shape=umlActor;verticalLabelPosition=bottom;verticalAlign=top;html=1;outlineConnect=0;labelBackgroundColor=none;" vertex="1" parent="1">
          <mxGeometry x="766" y="-1325" width="30" height="60" as="geometry" />
        </mxCell>
        <mxCell id="Nl0Tw7YQ_8z09jcdJoS5-14" value="" style="endArrow=none;html=1;rounded=0;entryX=0;entryY=0.5;entryDx=0;entryDy=0;exitX=1;exitY=0.3333333333333333;exitDx=0;exitDy=0;exitPerimeter=0;" edge="1" parent="1" source="Nl0Tw7YQ_8z09jcdJoS5-12" target="Nl0Tw7YQ_8z09jcdJoS5-6">
          <mxGeometry width="50" height="50" relative="1" as="geometry">
            <mxPoint x="337" y="-1305" as="sourcePoint" />
            <mxPoint x="587" y="-1355" as="targetPoint" />
          </mxGeometry>
        </mxCell>
        <mxCell id="Nl0Tw7YQ_8z09jcdJoS5-15" value="" style="endArrow=none;html=1;rounded=0;entryX=0;entryY=0.5;entryDx=0;entryDy=0;exitX=1;exitY=0.3333333333333333;exitDx=0;exitDy=0;exitPerimeter=0;" edge="1" parent="1" source="Nl0Tw7YQ_8z09jcdJoS5-12" target="Nl0Tw7YQ_8z09jcdJoS5-10">
          <mxGeometry width="50" height="50" relative="1" as="geometry">
            <mxPoint x="345" y="-1295" as="sourcePoint" />
            <mxPoint x="502" y="-1625" as="targetPoint" />
          </mxGeometry>
        </mxCell>
        <mxCell id="Nl0Tw7YQ_8z09jcdJoS5-16" value="" style="endArrow=none;html=1;rounded=0;entryX=0;entryY=0.5;entryDx=0;entryDy=0;exitX=1;exitY=0.3333333333333333;exitDx=0;exitDy=0;exitPerimeter=0;" edge="1" parent="1" source="Nl0Tw7YQ_8z09jcdJoS5-12" target="Nl0Tw7YQ_8z09jcdJoS5-7">
          <mxGeometry width="50" height="50" relative="1" as="geometry">
            <mxPoint x="345" y="-1295" as="sourcePoint" />
            <mxPoint x="502" y="-1535" as="targetPoint" />
          </mxGeometry>
        </mxCell>
        <mxCell id="Nl0Tw7YQ_8z09jcdJoS5-17" value="" style="endArrow=none;html=1;rounded=0;entryX=-0.018;entryY=0.504;entryDx=0;entryDy=0;exitX=1;exitY=0.3333333333333333;exitDx=0;exitDy=0;exitPerimeter=0;entryPerimeter=0;" edge="1" parent="1" source="Nl0Tw7YQ_8z09jcdJoS5-12" target="Nl0Tw7YQ_8z09jcdJoS5-5">
          <mxGeometry width="50" height="50" relative="1" as="geometry">
            <mxPoint x="345" y="-1295" as="sourcePoint" />
            <mxPoint x="502" y="-1175" as="targetPoint" />
          </mxGeometry>
        </mxCell>
        <mxCell id="Nl0Tw7YQ_8z09jcdJoS5-19" value="" style="endArrow=none;html=1;rounded=0;entryX=0;entryY=0.5;entryDx=0;entryDy=0;exitX=1;exitY=0.3333333333333333;exitDx=0;exitDy=0;exitPerimeter=0;" edge="1" parent="1" source="Nl0Tw7YQ_8z09jcdJoS5-12" target="Nl0Tw7YQ_8z09jcdJoS5-9">
          <mxGeometry width="50" height="50" relative="1" as="geometry">
            <mxPoint x="345" y="-1295" as="sourcePoint" />
            <mxPoint x="500" y="-1085" as="targetPoint" />
          </mxGeometry>
        </mxCell>
        <mxCell id="Nl0Tw7YQ_8z09jcdJoS5-20" value="" style="endArrow=none;html=1;rounded=0;entryX=1;entryY=0.5;entryDx=0;entryDy=0;exitX=0;exitY=0.3333333333333333;exitDx=0;exitDy=0;exitPerimeter=0;" edge="1" parent="1" source="Nl0Tw7YQ_8z09jcdJoS5-13" target="Nl0Tw7YQ_8z09jcdJoS5-1">
          <mxGeometry width="50" height="50" relative="1" as="geometry">
            <mxPoint x="345" y="-1295" as="sourcePoint" />
            <mxPoint x="502" y="-1625" as="targetPoint" />
          </mxGeometry>
        </mxCell>
        <mxCell id="Nl0Tw7YQ_8z09jcdJoS5-21" value="" style="endArrow=none;html=1;rounded=0;entryX=1;entryY=0.5;entryDx=0;entryDy=0;exitX=0;exitY=0.3333333333333333;exitDx=0;exitDy=0;exitPerimeter=0;" edge="1" parent="1" source="Nl0Tw7YQ_8z09jcdJoS5-13" target="Nl0Tw7YQ_8z09jcdJoS5-3">
          <mxGeometry width="50" height="50" relative="1" as="geometry">
            <mxPoint x="776" y="-1295" as="sourcePoint" />
            <mxPoint x="637" y="-1445" as="targetPoint" />
          </mxGeometry>
        </mxCell>
        <mxCell id="Nl0Tw7YQ_8z09jcdJoS5-23" value="" style="endArrow=none;html=1;rounded=0;entryX=1;entryY=0.5;entryDx=0;entryDy=0;exitX=0;exitY=0.3333333333333333;exitDx=0;exitDy=0;exitPerimeter=0;" edge="1" parent="1" source="Nl0Tw7YQ_8z09jcdJoS5-13" target="Nl0Tw7YQ_8z09jcdJoS5-4">
          <mxGeometry width="50" height="50" relative="1" as="geometry">
            <mxPoint x="776" y="-1295" as="sourcePoint" />
            <mxPoint x="637" y="-1355" as="targetPoint" />
          </mxGeometry>
        </mxCell>
        <mxCell id="Nl0Tw7YQ_8z09jcdJoS5-24" value="" style="endArrow=none;html=1;rounded=0;entryX=0.998;entryY=0.469;entryDx=0;entryDy=0;exitX=0;exitY=0.3333333333333333;exitDx=0;exitDy=0;exitPerimeter=0;entryPerimeter=0;" edge="1" parent="1" source="Nl0Tw7YQ_8z09jcdJoS5-13" target="Nl0Tw7YQ_8z09jcdJoS5-8">
          <mxGeometry width="50" height="50" relative="1" as="geometry">
            <mxPoint x="776" y="-1295" as="sourcePoint" />
            <mxPoint x="637" y="-1265" as="targetPoint" />
          </mxGeometry>
        </mxCell>
        <mxCell id="Nl0Tw7YQ_8z09jcdJoS5-26" value="&amp;lt;&amp;lt;Include&amp;gt;&amp;gt;" style="endArrow=open;endSize=12;dashed=1;html=1;rounded=0;exitX=1;exitY=0.5;exitDx=0;exitDy=0;entryX=0;entryY=0.5;entryDx=0;entryDy=0;" edge="1" parent="1" source="Nl0Tw7YQ_8z09jcdJoS5-6" target="Nl0Tw7YQ_8z09jcdJoS5-28">
          <mxGeometry width="160" relative="1" as="geometry">
            <mxPoint x="680" y="-1530" as="sourcePoint" />
            <mxPoint x="830" y="-1635" as="targetPoint" />
          </mxGeometry>
        </mxCell>
        <mxCell id="Nl0Tw7YQ_8z09jcdJoS5-28" value="Username and password details" style="ellipse;whiteSpace=wrap;html=1;labelBackgroundColor=none;" vertex="1" parent="1">
          <mxGeometry x="800" y="-1675" width="120" height="80" as="geometry" />
        </mxCell>
        <mxCell id="Nl0Tw7YQ_8z09jcdJoS5-29" value="&amp;lt;&amp;lt;Include&amp;gt;&amp;gt;" style="endArrow=open;endSize=12;dashed=1;html=1;rounded=0;exitX=1;exitY=0.5;exitDx=0;exitDy=0;entryX=0;entryY=0.5;entryDx=0;entryDy=0;" edge="1" parent="1" target="Nl0Tw7YQ_8z09jcdJoS5-30" source="Nl0Tw7YQ_8z09jcdJoS5-10">
          <mxGeometry width="160" relative="1" as="geometry">
            <mxPoint x="612" y="-1545" as="sourcePoint" />
            <mxPoint x="830" y="-1545" as="targetPoint" />
          </mxGeometry>
        </mxCell>
        <mxCell id="Nl0Tw7YQ_8z09jcdJoS5-30" value="Username and password details" style="ellipse;whiteSpace=wrap;html=1;labelBackgroundColor=none;" vertex="1" parent="1">
          <mxGeometry x="800" y="-1585" width="120" height="80" as="geometry" />
        </mxCell>
        <mxCell id="Nl0Tw7YQ_8z09jcdJoS5-31" value="&amp;lt;&amp;lt;Include&amp;gt;&amp;gt;" style="endArrow=open;endSize=12;dashed=1;html=1;rounded=0;exitX=1;exitY=0.5;exitDx=0;exitDy=0;entryX=0;entryY=0.5;entryDx=0;entryDy=0;" edge="1" parent="1" target="Nl0Tw7YQ_8z09jcdJoS5-32" source="Nl0Tw7YQ_8z09jcdJoS5-10">
          <mxGeometry width="160" relative="1" as="geometry">
            <mxPoint x="650" y="-1345" as="sourcePoint" />
            <mxPoint x="888" y="-1415" as="targetPoint" />
          </mxGeometry>
        </mxCell>
        <mxCell id="Nl0Tw7YQ_8z09jcdJoS5-32" value="System Access" style="ellipse;whiteSpace=wrap;html=1;labelBackgroundColor=none;" vertex="1" parent="1">
          <mxGeometry x="740" y="-1500" width="120" height="80" as="geometry" />
        </mxCell>
        <mxCell id="Nl0Tw7YQ_8z09jcdJoS5-33" value="&amp;lt;&amp;lt;Include&amp;gt;&amp;gt;" style="endArrow=open;endSize=12;dashed=1;html=1;rounded=0;exitX=1;exitY=0.5;exitDx=0;exitDy=0;entryX=0.5;entryY=0;entryDx=0;entryDy=0;" edge="1" parent="1" target="Nl0Tw7YQ_8z09jcdJoS5-34" source="Nl0Tw7YQ_8z09jcdJoS5-10">
          <mxGeometry width="160" relative="1" as="geometry">
            <mxPoint x="482" y="-1325" as="sourcePoint" />
            <mxPoint x="730" y="-1385" as="targetPoint" />
          </mxGeometry>
        </mxCell>
        <mxCell id="Nl0Tw7YQ_8z09jcdJoS5-34" value="Details validation" style="ellipse;whiteSpace=wrap;html=1;labelBackgroundColor=none;" vertex="1" parent="1">
          <mxGeometry x="620" y="-1430" width="120" height="80" as="geometry" />
        </mxCell>
      </root>
    </mxGraphModel>
  </diagram>
</mxfile>
